<?xml version="1.0" encoding="UTF-8"?>
<svg id="Laag_1" data-name="Laag 1" xmlns="http://www.w3.org/2000/svg" version="1.1" viewBox="0 0 3508 4961">
  <defs>
    <style>
      .cls-1 {
        fill: #000;
      }

      .cls-1, .cls-2, .cls-3 {
        stroke-width: 0px;
      }

      .cls-2 {
        fill: red;
      }

      .cls-3 {
        fill: #fff;
      }

      .cls-4 {
        fill: #ededed;
        stroke: #1d1d1b;
        stroke-linecap: round;
        stroke-miterlimit: 10;
      }
    </style>
  </defs>
  <path class="cls-2" d="M1829.1,2478.3c12.1-2.3,25.1-13.8,22.9-22.3-1.7-6.6-12.6-11.4-26-11,6.2,4.2,8.7,9.9,7,13-1.2,2.3-4.7,3-7,3-3.5,0-5-2.1-10.3-4.5-3-1.3-5.5-2.1-7.3-2.5,0,0,0,0,.1,0,0,0,0,0,.1,0,.1,0-1.6-12.2,1.4-17.8,1.6-3,5.4-5.7,9-5,3.7.7,6.7,4.7,7,10,8.5-5.8,12-15.9,9-24-3.3-8.9-14-14.4-21-12-11.6,3.9-9.8,28.6-25.2,33.4-.9.3-1.7.4-2.1.5,2.4-6.9,4-15.3,2.3-23.7-3.9-19.4-22.7-30-38-32-14.6-1.9-36.3,2.6-45,21-6.7,14-1.6,35,10.2,48.8-.7,0-1.8-.3-3.2-.8-11.8-4.2-10.7-19.9-21.1-29.3-7.9-7.1-21.5-9.8-27-5-9.6,8.4,5.8,39.3,7,39,.6-.2-3-8.1,1-14,2.7-4.1,8.8-6.9,13-5,4.4,2,5.4,8.4,6,12,1.2,7.9-1.6,12.2,1.4,15.9,1.6,2,3.9,2.7,5.7,3-6.2,1.9-10.4,4.7-13.2,7.2-4.3,3.9-5.2,7-8.9,7.9-4.3,1.1-9.6-1.4-12-5-3.7-5.6-1.5-15.4,7-22-21,10.7-26.2,33.6-18,45,7.5,10.5,27.1,12.5,36.1,5.3,5.9-4.8,4.5-11.4,12-18,5.8-5.1,12.8-6.6,18-7-6.6,3.5-28.4,16.3-33.1,39.7-.7,3.3-3.9,19.5,4,25,7,4.9,21.4.5,34-13-4.8,4.7-11.5,5.8-16,3-6-3.7-5.1-12.5-5-13,.5-3.9,2.6-7.5,13-16,5-4.1,21.4-17.4,24.1-14.7,1.9,1.9-6.4,8.4-6.1,19.7.2,5.8,2.5,6.6,5.1,17.3,2.1,8.5,3.8,15.4.9,17.7-3.1,2.5-10.9-.9-19-7,5.8,19.2,19,29.8,29,28,6.3-1.1,12-7.3,14-14,4.3-14.3-10.4-23.4-10-42,.2-10,4.7-18,8.1-22.7,1.6,5.5,3.4,13.8,4,24,.9,17.4-.2,21.9,3,31,2.8,8.1,11.3,24.2,22.9,23.7,9.5-.4,19.2-11.9,21-28-.5.5-7.9,7.4-16,5-5.1-1.5-7.7-5.9-9-8-4.3-7.4-3-14.5-2.9-21.7,0-7-1.1-17.3-7-30,9.8,10.7,19.1,14.9,25.9,16.7,13.3,3.5,22.2-.7,29,6,4.6,4.6,6.2,12.2,4,18-3.3,8.6-15.6,14-29,10,23.7,9.6,45.8,1.2,51-12,4.6-11.7-3.8-28-15-35-10.9-6.8-19.3-1.4-37.9-6.7-11.8-3.3-20.5-8.9-26-13,3.8.6,9.8,1.5,17,3,21.1,4.3,24.3,6.2,31,5Z"/>
  <ellipse class="cls-4" cx="1735.3" cy="2417.5" rx="5.6" ry="5"/>
  <ellipse class="cls-4" cx="1759.7" cy="2417.3" rx="5.6" ry="4.8"/>
  <circle class="cls-1" cx="1736.7" cy="2419.6" r="1.7"/>
  <circle class="cls-1" cx="1760.7" cy="2419" r="1.7"/>
  <ellipse class="cls-1" cx="1749.8" cy="2433" rx="8.8" ry="8"/>
  <path class="cls-1" d="M1682,2346c.3,1.7.7,3.3,1,5h2c.3-1.3.7-2.7,1-4,.3,1,.7,2,1,3h2c.3-1.3.7-2.7,1-4-.7-.4-2.1-1-4-1s-2.3.1-4,1Z"/>
  <path class="cls-3" d="M1753,2427c-.3,1-.7,2-1,3,.7.3,1.3.7,2,1,.7-.7,1.3-1.3,2-2-.2-.3-.6-.7-1-1-.8-.6-1.5-.9-2-1Z"/>
</svg>